<svg xmlns="http://www.w3.org/2000/svg" version="1.1" xmlns:xlink="http://www.w3.org/1999/xlink" xmlns:svgjs="http://svgjs.dev/svgjs" width="1000" height="1125" viewBox="0 0 1000 1125"><g transform="matrix(1,0,0,1,0,0)"><svg viewBox="0 0 320 360" data-background-color="#ffffff" preserveAspectRatio="xMidYMid meet" height="1125" width="1000" xmlns="http://www.w3.org/2000/svg" xmlns:xlink="http://www.w3.org/1999/xlink"><g id="tight-bounds" transform="matrix(1,0,0,1,0,0)"><svg viewBox="0 0 320 360" height="360" width="320"><g><svg></svg></g><g><svg viewBox="0 0 320 360" height="360" width="320"><g><path xmlns="http://www.w3.org/2000/svg" d="M320 187.111c0-45.764-20.238-86.866-52.203-114.908-28.043-31.964-69.145-52.203-114.908-52.203-84.302 0-152.889 68.587-152.889 152.889 0 45.753 20.231 86.848 52.185 114.891 28.043 31.975 69.152 52.22 114.926 52.22 0.299 0 0.59-0.021 0.889-0.021 0.299 0 0.59 0.021 0.889 0.021 83.456 0 151.111-67.655 151.111-151.111 0-0.299-0.021-0.59-0.021-0.889 0-0.299 0.021-0.59 0.021-0.889zM59.833 263.097c-15.093-21.255-24.071-47.143-24.256-75.097 0.48-72.928 59.492-131.943 132.423-132.423 27.954 0.185 53.845 9.163 75.097 24.256 24.366 23.627 39.57 56.64 39.57 93.056 0 71.559-58.219 129.778-129.778 129.778-36.416 0-69.429-15.204-93.056-39.57zM3.556 172.889c0-82.343 66.99-149.333 149.333-149.333 35.051 0 67.292 12.167 92.8 32.462-22.98-13.824-49.863-21.796-78.578-21.796-84.302 0-152.889 68.587-152.889 152.889 0 28.708 7.968 55.584 21.785 78.56-20.288-25.5-32.452-57.739-32.451-92.782zM167.111 318.667c-35.84 0-68.363-14.418-92.107-37.743 21.952 15.89 48.864 25.298 77.885 25.298 73.522 0 133.333-59.812 133.333-133.333 0-29.02-9.408-55.932-25.298-77.885 23.324 23.744 37.742 56.267 37.743 92.107 0 72.54-59.015 131.556-131.556 131.556z" fill="#bb84e8" fill-rule="nonzero" stroke="none" stroke-width="1" stroke-linecap="butt" stroke-linejoin="miter" stroke-miterlimit="10" stroke-dasharray="" stroke-dashoffset="0" font-family="none" font-weight="none" font-size="none" text-anchor="none" style="mix-blend-mode: normal" data-fill-palette-color="tertiary"></path></g><g transform="matrix(1,0,0,1,66.67391304347827,99)"><svg viewBox="0 0 186.65217391304347 162" height="162" width="186.65217391304347"><g><svg viewBox="0 0 186.65217391304347 162" height="162" width="186.65217391304347"><g><svg viewBox="0 0 186.6521739130435 162.00000000000003" height="162" width="186.65217391304347"><g><svg viewBox="0 0 186.6521739130435 162.00000000000003" height="162.00000000000003" width="186.6521739130435"><g id="textblocktransform"><svg viewBox="0 0 186.6521739130435 162.00000000000003" height="162.00000000000003" width="186.6521739130435" id="textblock"><g><svg viewBox="0 0 186.6521739130435 162.00000000000003" height="162.00000000000003" width="186.6521739130435"><g transform="matrix(1,0,0,1,0,0)"><svg width="186.6521739130435" viewBox="0.699999988079071 -33.400001525878906 39.75 34.5" height="162.00000000000003" data-palette-color="#bb84e8"><path d="M37.25-33.4Q39.1-33.05 39.68-32.83 40.25-32.6 40.45-32.15L40.45-32.15Q39.4-28.1 37.7-20.68 36-13.25 35.4-10.7L35.4-10.7Q34.3-5.6 33.35-1.65L33.35-1.65Q32.65 1.1 31.15 1.1L31.15 1.1Q26.55 1.1 26.55-1.05L26.55-1.05Q26.55-0.2 29.15-12.35L29.15-12.35 30.05-16.65 20.1-1.25Q19.3-0.25 17.75-0.25L17.75-0.25Q16.45-0.25 15.33-0.9 14.2-1.55 14.35-2.2L14.35-2.2 11.6-18.35 7.5-1.8Q7.15-0.35 6.43 0.15 5.7 0.65 3.7 0.65L3.7 0.65Q2.15 0.65 1.43 0.13 0.7-0.4 0.7-1.65L0.7-1.65Q0.7-2.2 0.85-2.7L0.85-2.7 7.7-29.75Q8.25-31.95 8.88-32.68 9.5-33.4 11.15-33.4L11.15-33.4Q12.5-33.4 13.55-33.1 14.6-32.8 14.65-32.2L14.65-32.2 14.65-32.1 18.65-7.25Q20.8-10.7 25.73-18.65 30.65-26.6 33.45-31.05L33.45-31.05Q33.95-32.3 34.58-32.68 35.2-33.05 36.02-33.2 36.85-33.35 37.25-33.4L37.25-33.4ZM26.55-1.05L26.55-1.05Z" opacity="1" transform="matrix(1,0,0,1,0,0)" fill="#bb84e8" class="undefined-text-0" data-fill-palette-color="primary" id="text-0"></path></svg></g></svg></g></svg></g></svg></g></svg></g></svg></g></svg></g></svg></g><defs></defs></svg><rect width="320" height="360" fill="none" stroke="none" visibility="hidden"></rect></g></svg></g></svg>